<svg version="1.1" xmlns="http://www.w3.org/2000/svg" xmlns:xlink="http://www.w3.org/1999/xlink" x="0px" y="0px" width="406.879px" height="493.27px" viewBox="-175.884 -214.104 406.879 493.27" enable-background="new -175.884 -214.104 406.879 493.27" xml:space="preserve"><path fill="#268BCC" d="M27.428-212.569h202.05V84.408c0 106.719-90.405 193.227-201.931 193.227 -111.496 0-201.898-86.508-201.898-193.227v-296.977H27.428z"/><defs><rect x="-175.884" y="-214.104" width="406.879" height="493.27"/></defs><clipPath><use xlink:href="#SVGID_1_" overflow="visible"/></clipPath><path clip-path="url(#SVGID_2_)" fill="none" stroke="#010202" stroke-width="3.048" d="M27.428-212.569h202.05V84.408c0 106.719-90.405 193.227-201.931 193.227 -111.496 0-201.898-86.508-201.898-193.227v-296.977H27.428z"/><path fill="#010202" d="M27.549 277.634L27.549 277.634c-111.496 0-201.898-86.508-201.898-193.227V-212.57H27.436L27.549 277.634z"/><path fill="#FFFFFF" d="M21.1-29.768c-9.559 0-13.926-2.082-17.84-4.184 -2.121-1.219-4.297-2.473-7.273-3.313 -0.078-0.016-0.168-0.051-0.23-0.066 -0.086-0.047-0.168-0.063-0.266-0.094 -2.148-0.563-4.719-0.922-8.078-0.922H-12.7h-0.125c-4.496 0-7.563 0.641-10.043 1.594 -6.809 2.488-9.934 6.953-23.344 6.984 -3.648-0.016-6.543-0.328-8.926-0.832 -9.898-2.16-11.242-7.754-24.387-7.754h-0.109 -0.113c-16.246 0-15.063 8.578-33.762 8.578 -18.711 0-16.887-8.578-33.16-8.578 -15.125 0-15.645 7.203-26.941 8.219V-2.73c11.313-1.008 11.832-8.207 26.961-8.207 16.262 0 14.445 8.605 33.16 8.605 2.734 0 5.039-0.199 7.047-0.512l0 0c11.246-1 11.816-8.168 26.824-8.215 13.031 0.031 14.297 5.609 24.496 7.77 2.344 0.504 5.184 0.832 8.781 0.832 0.059 0 0.098-0.016 0.152-0.016 0.066 0 0.121 0.016 0.168 0.016 14.074 0 16.672-4.504 23.176-7 2.594-0.938 5.715-1.578 10.168-1.594 3.371 0.016 6 0.375 8.188 0.953 0.102 0.031 0.176 0.047 0.262 0.063 0.082 0.031 0.16 0.066 0.234 0.082 2.871 0.84 5 2.063 7.27 3.313 2.48 1.422 4.898 2.816 8.535 3.504v-0.066c2.48 0.543 5.465 0.887 9.305 0.887 2.441 0 4.543-0.156 6.383-0.391v-27.422C25.651-29.897 23.542-29.768 21.1-29.768"/><path fill="#FFFFFF" d="M21.1 6.857c-9.559 0-13.926-2.082-17.84-4.188C1.139 1.455-1.037 0.201-4.013-0.639c-0.078-0.035-0.168-0.051-0.23-0.066C-4.33-0.752-4.412-0.768-4.509-0.784c-2.148-0.578-4.719-0.953-8.078-0.953H-12.7h-0.125c-4.496 0-7.563 0.641-10.043 1.609 -6.809 2.469-9.934 6.934-23.344 6.984 -3.648-0.016-6.543-0.328-8.926-0.836 -9.898-2.156-11.242-7.766-24.387-7.766h-0.109 -0.113c-16.246 0-15.063 8.594-33.762 8.594 -18.711 0-16.887-8.594-33.16-8.594 -15.125 0-15.645 7.199-26.941 8.215v27.41c11.297-1 11.824-8.219 26.941-8.219 16.266 0 14.449 8.594 33.16 8.594 2.738 0 5.043-0.168 7.051-0.488l0 0c11.246-1.016 11.816-8.184 26.824-8.23 13.031 0.031 14.293 5.605 24.496 7.766 2.344 0.504 5.184 0.832 8.781 0.832h0.152 0.168c14.074 0 16.672-4.488 23.176-6.984 2.594-0.934 5.715-1.59 10.168-1.605 3.371 0.016 6 0.375 8.184 0.949 0.105 0.02 0.18 0.051 0.266 0.082 0.082 0.016 0.16 0.031 0.23 0.063 2.875 0.84 5 2.082 7.273 3.297 2.48 1.441 4.895 2.84 8.535 3.512v-0.063c2.48 0.527 5.465 0.871 9.305 0.871 2.441 0 4.543-0.129 6.383-0.375V6.455C25.651 6.72 23.542 6.857 21.1 6.857"/><path fill="#FFFFFF" d="M21.1 43.462c-9.559 0-13.926-2.094-17.84-4.203 -2.121-1.195-4.297-2.453-7.273-3.313 -0.078-0.016-0.168-0.047-0.23-0.063 -0.086-0.016-0.168-0.047-0.266-0.078 -2.148-0.563-4.719-0.938-8.078-0.938 -0.039 0-0.055 0-0.113 0 -0.039 0-0.078 0-0.125 0 -4.496 0-7.563 0.656-10.043 1.594 -6.809 2.5-9.934 6.953-23.344 7 -3.648-0.016-6.543-0.328-8.926-0.828 -9.898-2.164-11.242-7.766-24.387-7.766 -0.039 0-0.063 0-0.109 0 -0.051 0-0.074 0-0.113 0 -16.246 0-15.063 8.586-33.762 8.586 -18.711 0-16.887-8.586-33.16-8.586 -15.125 0-15.645 7.195-26.941 8.211v27.43c11.297-1.023 11.824-8.219 26.941-8.219 16.266 0 14.449 8.594 33.16 8.594 2.738 0 5.043-0.203 7.051-0.508l0 0c11.246-1 11.816-8.18 26.824-8.234 13.031 0.055 14.293 5.625 24.496 7.789 2.344 0.5 5.184 0.813 8.781 0.813h0.152 0.168c14.074 0 16.672-4.484 23.176-6.984 2.594-0.938 5.715-1.594 10.168-1.609 3.371 0.016 6 0.375 8.184 0.953 0.105 0.047 0.18 0.047 0.266 0.078 0.082 0.016 0.16 0.047 0.23 0.063 2.875 0.859 5 2.094 7.273 3.313 2.48 1.438 4.895 2.844 8.535 3.516v-0.078c2.48 0.547 5.465 0.891 9.305 0.891 2.441 0 4.543-0.148 6.383-0.375V43.08C25.651 43.322 23.542 43.462 21.1 43.462"/><polygon fill="#FFFFFF" points="175.987,-76.545 187.745,-44.569 219.025,-44.569 194.331,-27.624 203.745,2.72 175.987,-15.159    148.221,2.72 157.877,-27.881 132.94,-44.569 164.221,-44.569  "/><polygon fill="none" stroke="#010202" stroke-width="3.048" points="175.987,-76.545 187.745,-44.569 219.025,-44.569    194.331,-27.624 203.745,2.72 175.987,-15.159 148.221,2.72 157.877,-27.881 132.94,-44.569 164.221,-44.569  "/><polygon fill="#FFFFFF" points="79.354,-76.545 91.088,-44.569 122.37,-44.569 97.682,-27.624 107.088,2.72 79.354,-15.159    51.807,2.72 61.229,-27.881 36.299,-44.569 67.573,-44.569  "/><polygon fill="none" stroke="#010202" stroke-width="3.048" points="79.354,-76.545 91.088,-44.569 122.37,-44.569 97.682,-27.624    107.088,2.72 79.354,-15.159 51.807,2.72 61.229,-27.881 36.299,-44.569 67.573,-44.569  "/><polygon fill="#FFFFFF" points="127.776,8.103 139.534,40.103 170.807,40.103 145.877,56.791 155.518,87.361 127.776,69.494    100.042,87.134 109.417,56.791 84.745,39.869 116.042,39.869  "/><defs><rect x="-175.884" y="-214.104" width="406.879" height="493.27"/></defs><clipPath><use xlink:href="#SVGID_3_" overflow="visible"/></clipPath><polygon clip-path="url(#SVGID_4_)" fill="none" stroke="#010202" stroke-width="3.048" points="127.776,8.103 139.534,40.103        170.807,40.103 145.877,56.791 155.518,87.361 127.776,69.494 100.042,87.134 109.417,56.791 84.745,39.869 116.042,39.869             "/><defs><rect x="-175.884" y="-214.104" width="406.879" height="493.27"/></defs><clipPath><use xlink:href="#SVGID_5_" overflow="visible"/></clipPath><line clip-path="url(#SVGID_6_)" fill="none" stroke="#010202" stroke-width="2.224" x1="27.206" y1="-212.881" x2="27.206" y2="277.666"/></svg>