<svg version="1.1" xmlns="http://www.w3.org/2000/svg" xmlns:xlink="http://www.w3.org/1999/xlink" x="0" y="0" width="406.4" height="492.69" viewBox="-176.31 -213.9 406.4 492.69" enable-background="new -176.306 -213.897 406.402 492.691" xml:space="preserve"><path fill="#FFFFFF" d="M26.77-212.38h201.82V84.27c0 106.59-90.3 193-201.68 193 -111.41 0-201.69-86.42-201.69-193v-296.65H26.77z"/><path fill="#16A74E" d="M-174.79 84.27c0 106.59 90.29 193 201.7 193 74.48 0 139.5-38.64 174.45-96.1l-376.15-391.28V84.27z"/><path fill="#E8423F" d="M-51.09-27.66c-1.18-0.46-6.08-1.51-7.33 0.63 -7.05 12.05 4.5 38.69 15.35 44.02 5.84 2.84 5.91 0.83 5.9 0.18C-37.32 9.63-58.83-13.28-51.09-27.66"/><path fill="none" stroke="#010202" stroke-width="3.05" d="M-51.09-27.66c-1.18-0.46-6.08-1.51-7.33 0.63 -7.05 12.05 4.5 38.69 15.35 44.02 5.84 2.84 5.91 0.83 5.9 0.18C-37.32 9.63-58.83-13.28-51.09-27.66z"/><path fill="#FFD730" d="M48.39 130.5c-19.26-3.75-49.18 5.72-49.18 5.72s-17.67 7.66-21.4 17.1c-3.76 9.49 0.38 13.33 0.38 13.33s9.01 15.3 3.03 21.9c-11.07 2.76-29.34-0.14-33.88-6.39 -4.71-6.44 3.03-10.69 3.17-15.28 0.29-9.75-7.43-13.98-10.39-12.72 -1.86 0.81 3.92 4.63 0.91 8.97 -3.51 5.03-8.63-2.89-13.41-5.33 -4.77-2.45-9.39 1.15-9.39 1.15s4.81 1.51 5.89 2.51c1.07 1.02 1.23 5.73-1.15 7 -3.6 1.95-12.83-2.34-18.63 6.11 4.88-1.52 6.85-0.09 7.28 0.25 3.45 2.61-2.13 8.08 6.42 12.64 -6.14 0.15-8.17 0.3-9.57 0.7 6.49 0.79 4.53 7.84 9.04 9.69 4.49 1.88 7.99 1.39 8.76 2.1 34.71 30.57 91.75 8.03 95.58 3.87 0.94-0.97-6.1-8.8-7.4-11.51 -0.76-1.52 2.68-21.51 7.29-23.21 6.47-6.69 30.93-11.64 30.93-11.64S50 137.47 48.39 130.5"/><path fill="#FFD730" d="M48.39 130.5c-19.26-3.75-49.18 5.72-49.18 5.72s-17.67 7.66-21.4 17.1c-3.76 9.49 0.38 13.33 0.38 13.33s9.01 15.3 3.03 21.9c-11.07 2.76-29.34-0.14-33.88-6.39 -4.71-6.44 3.03-10.69 3.17-15.28 0.29-9.75-7.43-13.98-10.39-12.72 -1.86 0.81 3.92 4.63 0.91 8.97 -3.51 5.03-8.63-2.89-13.41-5.33 -4.77-2.45-9.39 1.15-9.39 1.15s4.81 1.51 5.89 2.51c1.07 1.02 1.23 5.73-1.15 7 -3.6 1.95-12.83-2.34-18.63 6.11 4.88-1.52 6.85-0.09 7.28 0.25 3.45 2.61-2.13 8.08 6.42 12.64 -6.14 0.15-8.17 0.3-9.57 0.7 6.49 0.79 4.53 7.84 9.04 9.69 4.49 1.88 7.99 1.39 8.76 2.1 34.71 30.57 91.75 8.03 95.58 3.87 0.94-0.97-6.1-8.8-7.4-11.51 -0.76-1.52 2.68-21.51 7.29-23.21 6.47-6.69 30.93-11.64 30.93-11.64S50 137.47 48.39 130.5"/><path fill="none" stroke="#010202" stroke-width="3.05" stroke-miterlimit="17" d="M48.39 130.5c-19.26-3.75-49.18 5.72-49.18 5.72s-17.67 7.66-21.4 17.1c-3.76 9.49 0.38 13.33 0.38 13.33s9.01 15.3 3.03 21.9c-11.07 2.76-29.34-0.14-33.88-6.39 -4.71-6.44 3.03-10.69 3.17-15.28 0.29-9.75-7.43-13.98-10.39-12.72 -1.86 0.81 3.92 4.63 0.91 8.97 -3.51 5.03-8.63-2.89-13.41-5.33 -4.77-2.45-9.39 1.15-9.39 1.15s4.81 1.51 5.89 2.51c1.07 1.02 1.23 5.73-1.15 7 -3.6 1.95-12.83-2.34-18.63 6.11 4.88-1.52 6.85-0.09 7.28 0.25 3.45 2.61-2.13 8.08 6.42 12.64 -6.14 0.15-8.17 0.3-9.57 0.7 6.49 0.79 4.53 7.84 9.04 9.69 4.49 1.88 7.99 1.39 8.76 2.1 34.71 30.57 91.75 8.03 95.58 3.87 0.94-0.97-6.1-8.8-7.4-11.51 -0.76-1.52 2.68-21.51 7.29-23.21 6.47-6.69 30.93-11.64 30.93-11.64S50 137.47 48.39 130.5z"/><path fill="none" stroke="#010202" stroke-width="3.05" d="M-65.2 163.54c0 0-5.34 14.52 1.24 23.84 6.57 9.33 13.34 8.3 18.88 25.78M-79.31 169.58c0 0-0.75 3.12 4.78 6.15 -2.04 2.66-2.44 19.23 1.44 24.25"/><path fill="#FFD730" d="M-3.13 64.97c0-0.07 0-0.16-0.01-0.31 0 0.02-0.01 0.05-0.01 0.06C-3.14 64.81-3.13 64.9-3.13 64.97M-3.13 64.97C-3.11 65.15-3.11 65.15-3.13 64.97M144.17 143.12c-11.48-16.91-35.55-29.94-48-34.42C81.11 97.29 78 97.26 73.47 94.04c2.19-14.78-10.16-32.7-10.16-32.7s-5.78-6.58-18.51-6.64c3.34 2.63 16.89 13.42 13.37 16.03 -15.38-26.83-37.68-17.91-37.68-17.91s9.17 1.72 11.65 7.17c2.52 5.47 11.9 26.34 22.06 36.03 3.24 3.11 9.85 8.05 18.31 11.05 20.78 7.36 50.56 25.58 56.82 33.72 3.27 4.23 5.38 10.08 5.27 12.19 -0.11 2.09-2.3 4.03-5.39 3.63 -3.91-0.5-50.49-30.59-50.49-30.59s-10.05-7.27-30.44-12.28C34.93 95.65-4.19 77.15-12.47 70.36c-0.06 0.08-0.12 0.16-0.17 0.22 4.37-5.25 7.68-10.92 10.04-15.94 -0.66 5.34-0.59 8.84-0.54 10.02 0.09-1.91 20.34-22.44 16.5-31.85 14.66-5.8 12.8-7.46 12.12-13.08 -0.52 0.2-1.62 0.13-2.99 0 0.97 0.07 1.97 0.08 2.99 0C25.47 12.21 7.06 8.28 7.57 7.28c0.5-0.98 5.96 1.44 7.11 0.39C15.1 7.24-8.4-20.64-13.74-19.89c-2.06 0.66-3.15 2.54-5.46 1.25 -2.32-1.3-7.8-6.82-9.93-7.17 0.14 0.79-2.49 2.82-2.49 2.82s-3.14 1.08-5.67 2.89c-2.54 1.82-2.37 7.97 0.14 10.49 0.14 0.13-2.13 6.63-2.13 6.63s3.93-5.3 4.64-5.3c0.69 0 7.96 4.59 8.25 8.89 0.55 7.77-12.81 19.61-13.3 19.69 -2.75 0.42-7.99-9.46-9.29-10.13 -0.5-0.25-2.56-2.18-5.28 7.79 -0.2 0.77 0.57 2.45 1.92 4.64v-0.02c0 0-10.91-7.59-21.79-8.53 1.83 0.11 3.5 0.41 4.75 0.8 -3.78-7.92-11.35-38.34-7.71-54.59 24.59-9.31 22.04-13.2 21.78-17.87 3.67-4.59-2.02-10.11-2.02-10.11l-2.19 6.18c0 0-2.48 1.67-5.56-0.51 -3.07-2.17-1.09-10.43-2.39-15.1 -1.31-4.64-6.59-9.43-6.59-9.43s1.21 3.71 1.43 4.81c0.2 1.11-0.5 3.27-4.83 3.03 -4.33-0.23-4.17-4.77-6.57-6.93 -2.43-2.18-7.31-3.39-7.31-3.39s3.27 7.11 2.5 8.17c-2.21 0.23-5 6.6-6.78 7.15 -1.76 0.52-6.95-7.6-11.03-2.15 5.04-0.58 5.5 2.17 5.6 3.12 0.31 3.48-8.16 16.8-1.5 20.77 -6.41 14.82 0.17 23.67 0.17 23.67s-4.94 24.64-5.52 53.42c0.75 0.55 1.33 1.2 1.79 1.88 -15.36-13.3-24.84-54.14-24-59.18 0.44-2.61 1.05-3.59 1.05-3.59s1.96 0.28 3.98-0.27c2.05-0.54 2.66-1.06 2.66-1.06s5.82-0.53 7.35-1.02c1.52-0.49 7.1-11.11 4.16-18.23 -0.82 1.75-1.9 5.84-4.27 6.43 -2.37 0.61-2.1-1.61-5.84-3.14 1.16-11.11-9.66-23.04-9.66-23.04s3.63 7.42 1.23 8.76c-2.39 1.34-6.51 2.59-6.51 2.59l-1.25 12.86c0.19-2.67 0.4-6.66 0.4-11.9 -1.46-3.34-4.6-9.01-8.73-13.7 1.92 3.06 4.22 8.44-0.66 15.42 0.18 0.47 0.52 1.5 3.4 7.79 -3.27-5.75-15.1-13.14-15.1-13.14s2.98 11.31-2.95 17.79c4.2 1.86 1.23 39.06 11.79 40.97 2.68 5.56 5.66 72.26 19.64 89.98 1.76 0.12 15.6-0.08 15.6-0.08l-2.65 0.66c0 0 17.97 20 24.57 25 9.07 6.94 47.89 13.27 74.43 15.94 26.55 2.69 39.68 12.36 40.54 11.03 0.5-1.06-6.14-8.73-4.82-9.11 2.81-0.78 14.92 38.44 25.83 47.63 10.92 9.23 37.28 12.91 38.91 21.63 1.31 6.83-2.77 25.08-13.52 23.67 -1.6-0.23-6.31-17.27-9.02-18.53 -2.72-1.25-9.93-2.75-16.33 0.81 1.08 0.33 7.64 1.86 10.2 2.46 2.22 2.28-1.61 6.84-2.94 7.33 -3.03 1.06-5.43 0.34-7.8 0.84 -6.46 1.39-10.41 10.28-10.41 10.28s11.75 0.36 12.25 6.69c6.33-3.55 8.33-6.33 12.73-3.66 -14.29 3.25-15.42 6.73-17.84 16.81 5.38-2.89 8.59-5.22 10.18-4.16 1.56 1.08 3.47 2.34 5.91 1.41 0.42-0.16 0.97-0.39 1.59-0.69 -1.19 0.79-2.16 1.53-2.41 2.03 -0.79 1.69-1.18 9.82-0.16 10.84 0.48-1.05 1.63-5.08 4.31-5.16 2.67-0.12 12.05 1.97 13.36 0 1.3-1.98-0.97 0.16 1.88-3.15 2.84-3.24 15.42-8.18 18.28-10.21 3.33-6.72 30.33-32.31 29.13-50.53 -17.12-3.2-16.5-6.95-18.51-9.92 -11.77-2.72-30.04-33.5-33.2-38.25 4.61 4.84 46.66 31.81 57.25 34.91C140.74 171.47 154.25 157.97 144.17 143.12M17.8 19.25c-2.71-0.16-5.5-0.12-7.3 0.91C12.62 18.96 15.12 19 17.8 19.25M-36.01 86.34c0.88-0.25 1.77-0.53 2.65-0.83C-34.24 85.81-35.12 86.09-36.01 86.34"/><path fill="none" stroke="#010202" stroke-width="3.05" d="M-102.21-28.25c6.41-0.98 12.82-9.71 19.86-20.74 7.04-11.05 14.77-13.54 16.89-13.28M-102.65-52.37c0 0 13.7-14.5 23.31-17.34 -3.66-9.9 0.51-9.27 0.51-9.27M-120.98-52.83c0 0-8.63 8.91-9.07 19.15M46.24 210.45c8.48 0.92 23.39 10.95 21.11 4M45.8-24.31c-0.8 2.44-0.73 2.75 3.4 6.98C41.69-2.74 47.08 7.95 47.08 7.95"/><path fill="#E8423F" d="M9.18 139.63c0 0 15.31 7.7 20.85 7.49 -0.99-2.74-3.97-8.73-3.97-8.73S20.17 135.03 9.18 139.63"/><path fill="none" stroke="#010202" stroke-width="3.05" d="M9.18 139.63c0 0 15.31 7.7 20.85 7.49 -0.99-2.74-3.97-8.73-3.97-8.73S20.17 135.03 9.18 139.63z"/><path fill="#FFD730" d="M150.07-18.73c-2.19-1.18-24.44-4.91-35.52-3.17 -11.08 1.72-13.06 12.77-13.8 17.83 -0.69 5.03 0.81 12.86-15.05 9.98C78.96 4.7 70.39-3.69 70.46-8.02c0.09-5.98 7.44-8.41 7.64-13.08 0.06-1.41 0.14-13.03-8.82-13.03 -0.77 2.47 3.3 9.05-2.18 9.64 -5.27 0.56-9.67-7.02-14.22-9.87 -3.45-2.2-8.08-0.66-8.08-0.66l6.03 3.82c0 0-0.14 5.13-2.37 6.31 -4.27 2.25-12.98-5.1-20.95 3.64 5.17-0.66 6.66 0.78 8.09 1.11 1.54 3.82-1.91 10.64 4.13 13.28 -1.25-0.16-9.8-0.75-9.64-0.46 5.12 1.72 4.29 6.28 4.29 6.28s1.97 6.25 11.23 7.46c14.57 19.89 53.77 35.35 79.43 34 -0.34-20.37 6.29-26.09 18.41-28.14C144.39 7.66 149.85-17.76 150.07-18.73"/><path fill="#FFD730" d="M-52.24-160.7c-0.25 0.98-3.14 10.61 2.55 20.26 0.11-0.27-0.05-1.8-0.05-1.8s3.57-2.52 4.98-5.35c0.67-1.32 5.49-3.19 8.18-6.5 2.76-4.09 0.56-12.85-4.82-17.6 0.31 4.17 1.37 6.66 0.66 7.41C-43.61-161.17-51.99-161.67-52.24-160.7"/><path fill="none" stroke="#010202" stroke-width="3.05" d="M-52.24-160.7c-0.25 0.98-3.14 10.61 2.55 20.26 0.11-0.27-0.05-1.8-0.05-1.8s3.57-2.52 4.98-5.35c0.67-1.32 5.49-3.19 8.18-6.5 2.76-4.09 0.56-12.85-4.82-17.6 0.31 4.17 1.37 6.66 0.66 7.41C-43.61-161.17-51.99-161.67-52.24-160.7z"/><path fill="#E8423F" d="M67.85-186.38c-1.27-0.17-6.4-0.01-7.1 2.61 -4.06 14.76 13.95 40.26 26.03 43.08 6.52 1.5 6.09-0.69 5.92-1.34C90.71-150.08 63.74-168.94 67.85-186.38"/><path fill="none" stroke="#010202" stroke-width="3.05" d="M150.07-18.73c-2.19-1.18-24.44-4.91-35.52-3.17 -11.08 1.72-13.06 12.77-13.8 17.83 -0.69 5.03 0.81 12.86-15.05 9.98C78.96 4.7 70.39-3.69 70.46-8.02c0.09-5.98 7.44-8.41 7.64-13.08 0.06-1.41 0.14-13.03-8.82-13.03 -0.77 2.47 3.3 9.05-2.18 9.64 -5.27 0.56-9.67-7.02-14.22-9.87 -3.45-2.2-8.08-0.66-8.08-0.66l6.03 3.82c0 0-0.14 5.13-2.37 6.31 -4.27 2.25-12.98-5.1-20.95 3.64 5.17-0.66 6.66 0.78 8.09 1.11 1.54 3.82-1.91 10.64 4.13 13.28 -1.25-0.16-9.8-0.75-9.64-0.46 5.12 1.72 4.29 6.28 4.29 6.28s1.97 6.25 11.23 7.46c14.57 19.89 53.77 35.35 79.43 34 -0.34-20.37 6.29-26.09 18.41-28.14C144.39 7.66 149.85-17.76 150.07-18.73zM67.85-186.38c-1.27-0.17-6.4-0.01-7.1 2.61 -4.06 14.76 13.95 40.26 26.03 43.08 6.52 1.5 6.09-0.69 5.92-1.34C90.71-150.08 63.74-168.94 67.85-186.38z"/><defs><rect x="-176.31" y="-213.9" width="406.4" height="492.69"/></defs><clipPath><use xlink:href="#SVGID_1_" overflow="visible"/></clipPath><path clip-path="url(#SVGID_2_)" fill="#FFD730" d="M223.35-2.71c-0.86-8.27-9.61-29.95-30.94-62.46 -15.06-22.93-16.31-34.69-13.52-44.77 13.84-2.01 32.08-20.69 31.58-32.01 -0.52-11.34-7.39-17.09-7.39-17.09s-3.91 24.45-8.97 23.06c1.73-2.5 7.02-10.34 7.09-21.4 0.09-11.04-15.61-20.83-17.8-20.98 1.45 2.01 7.56 8.37 6 13.28 -1.58 4.9-5.69 10.52-11.28 17.88 -5.67 7.42-13.02 19.66-13.89 31.38 -0.89 11.6 5.52 25.47 8.41 33.85 3.09 8.88 24.09 42.77 24.09 42.77S221.82-1.46 213.33 5.51c-2.58 2.13-13.51 1.49-19.62-7 -5.73-7.94-4.97-7.61-9.88-14.95 -6.97-10.44-11.33-9.67-11.61-10.93 -22.46-37.62-53.82-58.54-58.44-61.28 0 0 7.25-7.06 9.46-14.89 -0.15 2.74-0.7 9.73-0.7 9.73s20.21-22.63 17.88-34.43c26.13-2.34 16.51-14.82 14.31-16.06 0.15-1.49-14.94-7.91-14.94-9.32 0 0 0.34-0.21 0.84-0.41 4.95 1.48 6.16 1.19 6.08 0.41 -0.06-0.77-20.59-23.91-29.14-25.56 -2.86 1.99-3.34 0.85-5.19 1.2 -2.84 0.45-9.84-8.73-13.36-8.94 -0.36 1.41-3.62 3.09-3.62 3.09s-7.08 2.13-8.48 4.73c-1.42 2.6 1.2 8.77 1.2 8.77l-1.15 5.84c0 0 3.77-4.65 3.97-5.01 1.91 2.83 8 2.53 9.48 10.66 1.48 8.12-4.73 10.8-7.13 15.68 -2.42 4.86-4.9 3.11-6.94 2.76 -3.04-0.53-10.13-7.64-10.4-7.64 -3.19 0-4.9 8.34-4.84 9.47 0.92-0.34 1.33 3.03 2.25 3.48 0.41 0.2 1 0.56 1.66 1 -11.02-7.34-29.12-5.5-29-4.96 0.14 0.52 4.96 2.46 4.67 3.69 -0.2 0.87-8.59-1.26-19.86 2.7 0.13-0.05 0.24-0.1 0.36-0.14 0 0-20.01-20.7-14.66-35.46 6.75-1.53 12.09-0.93 16.09-2.48 6.66-2.58 9.81-10.37 9.7-14.03 -6.51 7.06-8.47 5.25-9.55 4.78 -4.02-1.82 0.39-12.17 0-15.89 -0.37-3.71-5.25-8.1-5.25-8.1s1.51 5.5-6.51 8.11c-3.78 1.22-6.91-4.34-9.55-6.67 -2.66-2.31-7.66-2.7-7.66-2.7s4.01 6.04 2.88 7.63c-2.62 0.06-4.99 4.29-8.46 5.07 -3.46 0.79-6.82-6.99-12.73-1.91 4.42-0.42 4.8 0.85 5.25 1.59 2.06 3.35-1.12 4.37-2.5 17.49 -0.62 5.72-0.1 11.77 0.5 16.73 1.37 11.27 9.8 24.07 14.58 50.11 0.02 0.02 0.07 0.04 0.12 0.06 -17.73-7.25-37.51-12.25-47.78-22.5 -10.68-10.66-9.25-27.16-7.86-29.65 0-0.87-7.16-11.67-20.74-13.34 7.15 5.81 6.24 3.98 0.98 12.34 3.5 3.89 5.39 7.73 6.41 10.49 -1-2.08-2.83-4.99-6.27-8.99 -3.64-1.13-9.52-1.34-17.1 0.65 10.1 1.73 8.15 13.27 8.15 13.27s2.6 1.74 7.75 4.4c-5.64-2.41-22.77 1.18-22.77 1.18s13.85 1.18 12.6 9.78c6.98 4.61 15.11 13.95 18.75 15.92 1.39 0.83 0.74 1.52 7.74 3C-31.37-81.42 9.11-56.85 13.6-55.15c5.12-1.11 14.12-0.73 14.12-0.73s-3.76 0.49-7.62 0.92c6.74 8.79 30.43 10.41 61.07 14.04 41.11 4.84 57.34 27.77 59.72 28.14 0.73-1.98-1.37-3.12-1.64-10.34 6.88 11.33-1.23 44.97 11.02 57.56 11.75 12.08 28.36 22.54 32.58 28.26 1.33 1.77 3.02 5.49 2.13 15.82 -0.37 4.75-3.87 7.36-7.3 13.44 -2.2 1.09-5.05 1.34-8.69 0.03 -21.06-7.56-27.36 3.48-27.36 3.48s12.77-1.37 12.38 6.09c1.08-0.19 2.33-0.29 3.63-0.33 -3 1.07-5.92 3.55-7.75 8.7 5.5-3.13 10.48 3.23 12.89 6.42 2.39 3.21 5.16 0.46 5.16 0.46s6.56-7.62 12.03-7.72c-0.59 0.34-16.59 4.33-12.45 21.85 2.13-11.07 14.84-2.58 18.05-6.87 0.19-0.79-0.08-3.17 1.73-5.56 1.75-2.39 12-6 12-6s10.17-16.53 10.73-26.15c0.16-2.64 2.55-15.79 2.77-38.94 -17.44-1.52-18.31-13.1-19.93-25.71 -1.12-8.67-3.92-14.9-5.59-17.96 3.3 5.11 12.84 17.39 27.07 14.11C224.08 15.56 224.21 5.52 223.35-2.71M77.1-132.51c-0.26-0.25-0.57-0.48-0.85-0.71C76.54-132.97 76.84-132.74 77.1-132.51M75.87-133.5c-0.28-0.19-0.56-0.4-0.85-0.6C75.31-133.89 75.59-133.69 75.87-133.5"/><defs><rect x="-176.31" y="-213.9" width="406.4" height="492.69"/></defs><clipPath><use xlink:href="#SVGID_3_" overflow="visible"/></clipPath><path clip-path="url(#SVGID_4_)" fill="none" stroke="#010202" stroke-width="3.05" stroke-miterlimit="16" d="M113.75-88.65c4.63 2.74 35.98 23.66 58.45 61.28 0.27 1.26 4.64 0.5 11.6 10.93 4.92 7.34 4.16 7.02 9.89 14.95 6.11 8.49 17.05 9.13 19.63 7 8.48-6.97-16.59-44.72-16.59-44.72s-20.98-33.89-24.09-42.77c-2.88-8.38-9.29-22.25-8.41-33.85 0.87-11.71 8.21-23.95 13.88-31.37 5.59-7.36 9.71-12.98 11.28-17.88 1.56-4.91-4.54-11.27-6-13.28 2.19 0.14 17.89 9.93 17.81 20.98 -0.09 11.06-5.36 18.89-7.1 21.4 5.07 1.4 8.97-23.05 8.97-23.05s6.88 5.76 7.39 17.09c0.51 11.31-17.73 30-31.57 32.01 -2.8 10.08-1.54 21.84 13.51 44.77 21.33 32.5 30.08 54.18 30.94 62.46 0.88 8.23 0.75 18.28-9.03 20.54 -17.86 4.13-28.34-16.28-28.34-16.28s5.25 7.52 6.88 20.15c1.63 12.61 2.5 24.2 19.94 25.7 -0.22 23.17-2.61 36.31-2.77 38.95 -0.56 9.61-10.74 26.14-10.74 26.14s-10.24 3.61-12 6c-1.82 2.39-1.54 4.79-1.73 5.56 -3.19 4.3-15.92-4.19-18.05 6.88 -4.14-17.53 11.86-21.52 12.46-21.86 -5.48 0.09-12.03 7.72-12.03 7.72s-2.77 2.77-5.16-0.45c-2.41-3.19-7.39-9.55-12.88-6.42 5-14.22 18.49-8.12 18.49-8.12s-9.12-1.19-14.37-0.23c0.4-7.47-12.37-6.09-12.37-6.09s6.3-11.05 27.36-3.49c3.64 1.31 6.49 1.06 8.7-0.03 3.42-6.09 6.91-8.69 7.29-13.44 0.89-10.33-0.8-14.05-2.12-15.81 -4.22-5.72-20.84-16.19-32.58-28.26 -12.24-12.59-4.15-46.23-11.02-57.56 0.27 7.22 2.38 8.36 1.64 10.34 -2.37-0.37-18.61-23.3-59.73-28.14C50.51-44.56 26.81-46.18 20.08-54.97c3.86-0.44 7.63-0.92 7.63-0.92s-9-0.38-14.12 0.73c-4.5-1.7-44.98-26.27-70.33-56.81 -7-1.48-6.35-2.17-7.74-3 -3.64-1.98-11.77-11.31-18.75-15.92 1.25-8.59-12.6-9.78-12.6-9.78s18.73-3.93 23.48-0.82c-5.61-2.85-8.46-4.76-8.46-4.76s1.95-11.55-8.15-13.27c7.57-1.99 13.47-1.78 17.1-0.65 8.26 9.59 7.39 13.06 7.39 13.06s-0.89-7.2-7.51-14.55c5.25-8.35 6.17-6.53-0.98-12.34 13.58 1.66 20.74 12.47 20.74 13.34 -1.38 2.5-2.82 18.99 7.86 29.65 14.6 14.56 48.46 18.49 68.19 33.5 13.15 10.01 11.24 25.79-1.96 27.09 5.57 5.19 29.2 4.04 29.2 4.04s-4.51 4.23-6 5.62c2.02 1.49 28 4.98 44.24-13.83 -2.26 5.11-3.63 7.72-3.63 7.72S92.28-65.86 113.75-88.65z"/><path fill="none" stroke="#010202" stroke-width="3.05" stroke-miterlimit="9" d="M21.87-70.42c5.57 5.19 29.21 4.04 29.21 4.04s-4.52 4.23-6 5.62c2.02 1.49 27.98 4.98 44.23-13.83 -2.27 5.11-3.64 7.72-3.64 7.72s6.61 1 28.09-21.79c0 0 7.25-7.06 9.46-14.89 -0.15 2.74-0.7 9.73-0.7 9.73s20.21-22.63 17.88-34.43c26.13-2.34 16.51-14.82 14.31-16.06 -0.69-0.14-7.44 0-13.19-0.27 -5.79-0.27-7.56 5.5-7.56 5.5s-3.98 9.45-12.69 20.84c-12.87 16.96-33.54-5.09-44.16-14.27 -10.59-9.18-31.23-7.14-31.09-6.57 0.15 0.52 4.96 2.46 4.67 3.69 -0.28 1.23-16.92-3.56-34.94 11.39 0.82 0 9.24-0.11 8.93 2.18 -0.13 1.11-11.66 2.48-15.54 15.8 0.83 0.26 10.38 5.22 14.71 8.5C36.97-87.51 35.08-71.72 21.87-70.42"/><path fill="none" stroke="#010202" stroke-width="3.05" d="M9.13-106.02c3.88-13.32 15.42-14.69 15.54-15.8 0.31-2.29-8.12-2.18-8.93-2.18 5.41-4.48 10.7-7.18 15.44-8.83 0 0-20.01-20.7-14.66-35.46 6.75-1.53 12.09-0.93 16.09-2.48 6.66-2.58 9.81-10.37 9.7-14.03 -6.5 7.06-8.47 5.25-9.55 4.78 -4.02-1.82 0.38-12.17 0-15.89 -0.37-3.71-5.25-8.1-5.25-8.1s1.51 5.5-6.51 8.1c-3.78 1.22-6.91-4.34-9.55-6.67 -2.66-2.31-7.66-2.7-7.66-2.7s4.01 6.04 2.88 7.63c-2.62 0.06-4.99 4.29-8.46 5.07 -3.46 0.79-6.82-6.99-12.73-1.91 4.42-0.42 4.8 0.85 5.25 1.59 2.06 3.35-1.12 4.37-2.5 17.49 -0.62 5.72-0.1 11.77 0.5 16.73 1.37 11.27 9.8 24.07 14.58 50.11C3.89-108.22 9.13-106.02 9.13-106.02z"/><path fill="none" stroke="#010202" stroke-width="3.05" stroke-miterlimit="5" d="M154.72-144.3c-0.02 0.28-7.44 0-13.2-0.27 -5.78-0.27-7.56 5.5-7.56 5.5s-3.98 9.45-12.69 20.84c-12.87 16.96-33.55-5.09-44.16-14.27 -1.15-1-2.87-2.18-3.75-2.6 -0.92-0.45-1.33-3.83-2.25-3.48 -0.08-1.13 1.63-9.46 4.83-9.46 0.27 0 7.36 7.1 10.39 7.64 2.05 0.35 4.53 2.11 6.95-2.76 2.39-4.88 8.61-7.56 7.13-15.68 -1.48-8.12-7.57-7.82-9.48-10.66 -0.19 0.36-3.97 5.01-3.97 5.01l1.15-5.84c0 0-2.62-6.17-1.2-8.77 1.41-2.6 8.48-4.73 8.48-4.73s3.27-1.68 3.63-3.09c3.52 0.21 10.52 9.39 13.36 8.94 1.84-0.35 2.33 0.79 5.19-1.2 8.55 1.65 29.08 24.8 29.14 25.56 0.08 0.79-1.12 1.07-6.08-0.41 -0.5 0.2-0.84 0.41-0.84 0.41C139.77-152.21 154.85-145.79 154.72-144.3z"/><path fill="#010202" d="M114.21-172.17c1.15 0.14 11.84 2.89 13.72 15.39 -0.42 0.69-13.72-2.06-13.72-6.02C114.21-167.27 118.8-168.23 114.21-172.17"/><path fill="#E8423F" d="M120.39-14.33c8.33-0.05 18.34 0.34 20.81 4.41 0.05 1.69 0.63 5.48 0.91 8.16C138-2.34 120.39-13.4 120.39-14.33"/><path fill="none" stroke="#010202" stroke-width="3.05" d="M-104.53 30.66c0 0 1.16-5.94 12.96-4.67 1.23-2.2-7.56-3.94-7.41-4.61 0.17-0.69 12.69-5.93 21.26-3.98 -1.81-1.37-3.1-1.95-5.56-2.17 4.33-1.78 10.58-1.41 13.9-0.39 -3.78-7.92-11.35-38.34-7.71-54.59 24.59-9.31 22.04-13.2 21.78-17.87 3.67-4.59-2.02-10.11-2.02-10.11l-2.19 6.18c0 0-2.49 1.67-5.56-0.51 -3.07-2.17-1.09-10.43-2.39-15.1 -1.31-4.64-6.59-9.43-6.59-9.43s1.21 3.71 1.43 4.81c0.2 1.11-0.5 3.27-4.83 3.03 -4.33-0.23-4.17-4.77-6.57-6.93 -2.43-2.18-7.31-3.39-7.31-3.39s3.27 7.11 2.49 8.17c-2.21 0.23-5 6.6-6.77 7.15 -1.76 0.52-6.95-7.6-11.03-2.15 5.04-0.58 5.5 2.17 5.6 3.12 0.31 3.48-8.16 16.8-1.5 20.77 -6.41 14.82 0.17 23.67 0.17 23.67s-4.94 24.64-5.52 53.42C-105.19 27.04-104.53 30.66-104.53 30.66zM18.42-196.21c0.59 2.52-5.2 4.57-7.85 9.69 -11.92 2.98-20.11 12.54-22.5 18.8M-8.47-148.16c2.27-1.13 16.57-30.46 28.76-35.78 6.61-2.88 6.08 0.66 10.98-2.52M120.39-14.33c8.33-0.05 18.34 0.34 20.81 4.41 0.05 1.69 0.63 5.48 0.91 8.16C138-2.34 120.39-13.4 120.39-14.33z"/><path fill="none" stroke="#010202" stroke-width="3.05" stroke-miterlimit="17" d="M-39.28-3c0 0 3.93-5.3 4.64-5.3 0.69 0 7.96 4.59 8.25 8.89 0.55 7.77-12.81 19.61-13.3 19.69 -2.75 0.42-7.99-9.46-9.29-10.13 -0.5-0.25-2.56-2.18-5.28 7.79 -0.82 3.03 13.86 20.91 19.63 25.95 18.99 16.64 35.24-8.89 37.2-10.86 5.72-5.67 4.1-10.72 7.94-12.87 4.08-2.31 9.54-0.03 14.97-0.44C25.45 12.21 7.05 8.28 7.56 7.28c0.5-0.98 5.96 1.44 7.11 0.39 0.41-0.43-23.09-28.31-28.43-27.56 -2.06 0.66-3.15 2.54-5.46 1.25 -2.32-1.3-7.81-6.82-9.93-7.17 0.14 0.79-2.49 2.82-2.49 2.82s-3.14 1.08-5.67 2.89c-2.55 1.82-2.37 7.97 0.14 10.49C-37.03-9.5-39.28-3-39.28-3z"/><path fill="none" stroke="#010202" stroke-width="3.05" stroke-miterlimit="7" d="M-52.34 22.56c4.04 6.55 13.38 17.54 17.7 21.32C-15.65 60.53 0.6 35.01 2.56 33.04c5.72-5.67 4.1-10.72 7.94-12.87 4.08-2.31 13.1 0.28 14.97-0.44 0.68 5.63 2.55 7.28-12.12 13.08 3.86 9.47-16.68 30.22-16.5 31.92 0.18 1.71-0.43-2.24 0.55-10.08C-8.13 66.27-18.51 81.48-36.02 86.35c0.46-0.9 1.9-3.51 3.47-7.46 -24 23.4-48.28 14.84-48.28 14.84s1.7-1.45 6.02-5.12c-15.95-0.77-22.85-2.78-37.6-14.69 9.13-1.27 13.25-10.23 14.28-18.69 1.05-8.44-2.89-9.77-4.92-14.42 -2.06-4.67-1.49-10.16-1.49-10.16s1.16-5.94 12.96-4.67c1.22-2.2-7.56-3.94-7.41-4.61 0.17-0.69 12.69-5.93 21.26-3.98 -1.81-1.37-4.03-2.42-6.5-2.62C-71.41 9.49-52.34 22.56-52.34 22.56z"/><path fill="none" stroke="#010202" stroke-width="3.05" stroke-miterlimit="10" d="M-12.46 70.36c-5.5 6.5-13.5 13.19-23.54 15.98 0.45-0.91 1.9-3.5 3.47-7.45 -24 23.39-48.28 14.84-48.28 14.84s1.7-1.45 6.02-5.12c-15.95-0.77-22.85-2.79-37.6-14.69 9.13-1.26 13.25-10.23 14.28-18.69 1.05-8.44-2.89-9.77-4.92-14.42 -2.06-4.67-1.49-10.16-1.49-10.16s-0.18-2.28-1.6-3.74c-15.36-13.29-24.84-54.14-24-59.18 0.44-2.6 1.05-3.59 1.05-3.59s1.96 0.28 3.98-0.27c2.05-0.54 2.66-1.06 2.66-1.06s5.82-0.53 7.35-1.02c1.52-0.49 7.1-11.11 4.16-18.23 -0.82 1.75-1.9 5.83-4.27 6.43 -2.37 0.61-2.1-1.61-5.84-3.14 1.16-11.11-9.66-23.04-9.66-23.04s3.63 7.42 1.23 8.76c-2.39 1.34-6.51 2.59-6.51 2.59l-1.69 16.97c0 0 0.81-5.46 0.81-16 -1.46-3.34-4.6-9.01-8.73-13.7 1.11 3.4 4.22 8.44-0.66 15.42 0.18 0.49 0.56 1.63 4.02 9.13 -1.9-5.85-15.72-14.49-15.72-14.49s2.98 11.31-2.95 17.78c4.2 1.86 1.23 39.07 11.79 40.97 2.68 5.56 5.66 72.26 19.64 89.98 1.76 0.12 15.6-0.08 15.6-0.08l-2.66 0.66c0 0 17.98 20 24.57 25 9.07 6.94 47.89 13.27 74.43 15.94 26.56 2.69 39.68 12.36 40.55 11.03 0.5-1.06-1.82-6.91-4.82-9.11 4.16 0.13 14.92 38.44 25.83 47.63 10.92 9.23 37.28 12.91 38.91 21.63 1.31 6.83-2.77 25.08-13.52 23.67 -1.61-0.23-6.31-17.27-9.02-18.53 -2.72-1.25-9.94-2.75-16.33 0.81 1.08 0.33 7.64 1.86 10.2 2.46 2.22 2.27-1.61 6.84-2.94 7.33 -3.03 1.06-5.43 0.34-7.8 0.84 -6.46 1.39-10.41 10.28-10.41 10.28s11.75 0.36 12.25 6.69c6.33-3.55 8.33-6.33 12.73-3.66 -14.3 3.25-15.42 6.73-17.84 16.8 5.38-2.88 8.59-5.21 10.18-4.16 1.56 1.08 3.47 2.34 5.91 1.41 2.42-0.9 8.27-4.51 8.27-4.51s-8.29 4.2-9.09 5.85c-0.79 1.69-1.18 9.82-0.16 10.85 0.48-1.05 1.63-5.08 4.31-5.16 2.67-0.13 12.05 1.97 13.36 0 1.3-1.98-0.97 0.16 1.88-3.15 2.84-3.24 15.42-8.18 18.28-10.21 3.33-6.72 30.33-32.31 29.13-50.53 -17.12-3.2-16.5-6.95-18.52-9.92 -12.45-2.89-32-36.56-33.63-38.86 0 2.19 46.49 32.2 57.69 35.52 12.85 3.77 26.38-9.73 16.29-24.58 -11.47-16.91-35.54-29.94-48-34.42 -15.05-11.41-18.16-11.44-22.69-14.66 2.19-14.78-10.16-32.7-10.16-32.7s-5.78-6.58-18.51-6.64c3.34 2.63 16.89 13.42 13.36 16.03C42.78 43.9 20.49 52.83 20.49 52.83s9.17 1.72 11.65 7.17c2.52 5.47 11.9 26.34 22.06 36.03 3.24 3.11 9.85 8.05 18.31 11.05 20.78 7.36 50.56 25.58 56.82 33.72 3.27 4.23 5.38 10.08 5.27 12.19 -0.11 2.09-2.3 4.03-5.39 3.63 -3.91-0.5-50.49-30.59-50.49-30.59s-10.05-7.27-30.44-12.28C34.93 95.66-4.18 77.15-12.46 70.36z"/><path fill="#010202" d="M-14.77-11.15C-3.38-8.17-1.31 3.66-1.16 5.01c-1.21 0.34-12.14-1.97-13.32-6.2C-15.56-5.11-8.76-8.06-14.77-11.15"/><path fill="none" stroke="#010202" stroke-width="3.05" d="M62.13-25.66c0 0-6.75 12-4.87 19.28C59.89 3.92 72.72 11.95 72.03 26.06"/><path fill="#FFD730" d="M158.33 88.93c0 0-0.33-2.85 0.7-4.23 1-1.37 1.47-5.18 1.34-6.36 -0.12-1.16 0.56-1.48-5.91-2.62 5.61-2.16 14.94 1.41 16.83 2.89 1.86 1.42 2.95 10.65 5.5 12.18 -1.16 2.19-5.78 1.51-5.78 1.51L158.33 88.93z"/><defs><rect x="-176.31" y="-213.9" width="406.4" height="492.69"/></defs><clipPath><use xlink:href="#SVGID_5_" overflow="visible"/></clipPath><path clip-path="url(#SVGID_6_)" fill="none" stroke="#010202" stroke-width="3.05" d="M158.33 88.93c0 0-0.33-2.85 0.7-4.23 1-1.37 1.47-5.18 1.34-6.36 -0.12-1.16 0.56-1.48-5.91-2.62 5.61-2.16 14.94 1.41 16.83 2.89 1.86 1.42 2.95 10.65 5.5 12.18 -1.16 2.19-5.78 1.51-5.78 1.51L158.33 88.93z"/><defs><rect x="-176.31" y="-213.9" width="406.4" height="492.69"/></defs><clipPath><use xlink:href="#SVGID_7_" overflow="visible"/></clipPath><line clip-path="url(#SVGID_8_)" fill="none" stroke="#010202" stroke-width="3.05" stroke-miterlimit="7" x1="-174.55" y1="-209.88" x2="201.38" y2="180.67"/><defs><rect x="-176.31" y="-213.9" width="406.4" height="492.69"/></defs><clipPath><use xlink:href="#SVGID_9_" overflow="visible"/></clipPath><path clip-path="url(#SVGID_10_)" fill="none" stroke="#010202" stroke-width="3.05" d="M26.77-212.38h201.82V84.27c0 106.59-90.3 193-201.68 193 -111.41 0-201.69-86.42-201.69-193v-296.65H26.77z"/></svg>