<?xml version="1.0" encoding="utf-8"?>
<svg version="1.1" id="apple-store" xmlns="http://www.w3.org/2000/svg" x="0px"
	 y="0px" width="80px" height="23.698px" viewBox="0 28.148 80 23.698" enable-background="new 0 28.148 80 23.698"
	 xml:space="preserve">
<path fill="#FFFFFF" d="M79.426,49.048c0,1.254-1.016,2.27-2.271,2.27H2.802c-1.255,0-2.275-1.016-2.275-2.27v-18.1
	c0-1.253,1.02-2.272,2.275-2.272h74.352c1.256,0,2.271,1.019,2.271,2.272V49.048L79.426,49.048z"/>
<path fill="#A6A6A6" d="M77.154,51.846H2.802C1.257,51.846,0,50.591,0,49.048V30.949c0-1.544,1.257-2.801,2.802-2.801h74.352
	c1.543,0,2.802,1.256,2.802,2.801v18.099C79.957,50.591,78.698,51.846,77.154,51.846L77.154,51.846z"/>
<path d="M79.426,49.048c0,1.254-1.016,2.27-2.271,2.27H2.802c-1.255,0-2.275-1.016-2.275-2.27v-18.1c0-1.253,1.02-2.272,2.275-2.272
	h74.352c1.256,0,2.271,1.019,2.271,2.272V49.048L79.426,49.048z"/>
<path fill="#FFFFFF" d="M17.854,39.872c-0.017-1.91,1.564-2.839,1.636-2.882c-0.896-1.306-2.283-1.484-2.771-1.498
	c-1.166-0.123-2.296,0.697-2.89,0.697c-0.605,0-1.52-0.686-2.505-0.666c-1.268,0.02-2.455,0.754-3.105,1.894
	c-1.343,2.325-0.341,5.741,0.945,7.62c0.644,0.922,1.396,1.948,2.38,1.912c0.963-0.039,1.323-0.613,2.485-0.613
	c1.151,0,1.489,0.613,2.493,0.59c1.033-0.016,1.684-0.924,2.305-1.853c0.744-1.054,1.042-2.094,1.054-2.147
	C19.856,42.918,17.874,42.16,17.854,39.872z"/>
<path fill="#FFFFFF" d="M15.958,34.255c0.518-0.647,0.872-1.529,0.774-2.423c-0.75,0.033-1.688,0.519-2.227,1.152
	c-0.478,0.558-0.904,1.473-0.794,2.333C14.552,35.381,15.417,34.893,15.958,34.255z"/>
<linearGradient id="SVGID_1_" gradientUnits="userSpaceOnUse" x1="533.1465" y1="721.6914" x2="533.1465" y2="685.6455" gradientTransform="matrix(0.5926 0 0 0.5926 -257.2963 -375.7594)">
	<stop  offset="0" style="stop-color:#1A1A1A;stop-opacity:0.1"/>
	<stop  offset="0.1235" style="stop-color:#212121;stop-opacity:0.1506"/>
	<stop  offset="0.3085" style="stop-color:#353535;stop-opacity:0.2265"/>
	<stop  offset="0.5321" style="stop-color:#575757;stop-opacity:0.3181"/>
	<stop  offset="0.7834" style="stop-color:#858585;stop-opacity:0.4212"/>
	<stop  offset="1" style="stop-color:#B3B3B3;stop-opacity:0.51"/>
</linearGradient>
<path fill="url(#SVGID_1_)" d="M77.154,28.148H37.329l15.599,23.698h24.227c1.543,0,2.803-1.255,2.803-2.8V30.949
	C79.957,29.404,78.698,28.148,77.154,28.148z"/>
<g>
	<path fill="#FFFFFF" d="M31.801,46.817h-1.346l-0.737-2.316h-2.562l-0.702,2.316h-1.311l2.54-7.886h1.568L31.801,46.817z
		 M29.496,43.529l-0.667-2.06c-0.07-0.21-0.203-0.706-0.397-1.486h-0.024c-0.078,0.335-0.203,0.831-0.375,1.486l-0.655,2.06H29.496z
		"/>
	<path fill="#FFFFFF" d="M38.319,43.904c0,0.967-0.263,1.731-0.788,2.293c-0.471,0.499-1.056,0.748-1.753,0.748
		c-0.753,0-1.295-0.268-1.624-0.807v2.984h-1.264V43c0-0.607-0.016-1.23-0.047-1.869h1.111l0.07,0.901h0.024
		c0.421-0.679,1.061-1.019,1.918-1.019c0.671,0,1.231,0.265,1.679,0.795C38.094,42.34,38.319,43.038,38.319,43.904z M37.032,43.95
		c0-0.554-0.125-1.01-0.375-1.37c-0.273-0.373-0.64-0.561-1.1-0.561c-0.312,0-0.595,0.104-0.848,0.311
		c-0.254,0.207-0.42,0.478-0.498,0.812c-0.039,0.156-0.059,0.284-0.059,0.385v0.949c0,0.413,0.127,0.762,0.381,1.047
		c0.253,0.285,0.583,0.428,0.988,0.428c0.476,0,0.846-0.184,1.111-0.55C36.899,45.035,37.032,44.551,37.032,43.95z"/>
	<path fill="#FFFFFF" d="M44.859,43.904c0,0.967-0.263,1.731-0.788,2.293c-0.472,0.499-1.056,0.748-1.754,0.748
		c-0.753,0-1.294-0.268-1.624-0.807v2.984h-1.263V43c0-0.607-0.016-1.23-0.047-1.869h1.111l0.071,0.901h0.023
		c0.421-0.679,1.061-1.019,1.919-1.019c0.67,0,1.23,0.265,1.68,0.795C44.635,42.34,44.859,43.038,44.859,43.904z M43.572,43.95
		c0-0.554-0.126-1.01-0.376-1.37c-0.272-0.373-0.639-0.561-1.099-0.561c-0.312,0-0.595,0.104-0.85,0.311
		c-0.253,0.207-0.418,0.478-0.496,0.812c-0.039,0.156-0.059,0.284-0.059,0.385v0.949c0,0.413,0.127,0.762,0.379,1.047
		c0.254,0.285,0.584,0.428,0.99,0.428c0.477,0,0.847-0.184,1.111-0.55C43.439,45.035,43.572,44.551,43.572,43.95z"/>
	<path fill="#FFFFFF" d="M52.172,44.605c0,0.671-0.234,1.217-0.701,1.639c-0.514,0.459-1.229,0.689-2.148,0.689
		c-0.848,0-1.528-0.163-2.041-0.49l0.291-1.054c0.555,0.328,1.163,0.491,1.826,0.491c0.477,0,0.846-0.107,1.11-0.321
		s0.399-0.501,0.399-0.859c0-0.32-0.111-0.589-0.328-0.808c-0.219-0.218-0.58-0.422-1.088-0.607
		c-1.381-0.516-2.072-1.269-2.072-2.26c0-0.646,0.244-1.177,0.73-1.591c0.488-0.414,1.134-0.62,1.938-0.62
		c0.717,0,1.315,0.125,1.79,0.374l-0.317,1.03c-0.446-0.242-0.951-0.363-1.516-0.363c-0.445,0-0.795,0.11-1.045,0.328
		c-0.21,0.195-0.316,0.433-0.316,0.715c0,0.311,0.121,0.569,0.363,0.771c0.209,0.188,0.592,0.391,1.146,0.608
		c0.679,0.274,1.179,0.593,1.497,0.959C52.012,43.604,52.172,44.061,52.172,44.605z"/>
	<path fill="#FFFFFF" d="M56.359,42.078h-1.393v2.762c0,0.702,0.246,1.053,0.737,1.053c0.226,0,0.413-0.02,0.562-0.059l0.035,0.959
		c-0.249,0.093-0.577,0.14-0.982,0.14c-0.5,0-0.889-0.152-1.171-0.457c-0.28-0.304-0.421-0.814-0.421-1.532v-2.867h-0.83v-0.947
		h0.83v-1.042l1.24-0.375v1.417h1.393V42.078z"/>
	<path fill="#FFFFFF" d="M62.631,43.928c0,0.873-0.25,1.591-0.75,2.152c-0.521,0.578-1.216,0.865-2.082,0.865
		c-0.836,0-1.5-0.276-1.995-0.829c-0.495-0.554-0.743-1.253-0.743-2.095c0-0.881,0.256-1.603,0.767-2.164s1.2-0.842,2.065-0.842
		c0.834,0,1.505,0.277,2.012,0.83C62.389,42.383,62.631,43.076,62.631,43.928z M61.32,43.956c0-0.521-0.111-0.968-0.338-1.342
		c-0.265-0.451-0.645-0.677-1.135-0.677c-0.507,0-0.895,0.226-1.159,0.677c-0.226,0.374-0.339,0.829-0.339,1.366
		c0,0.521,0.113,0.969,0.339,1.342C58.962,45.773,59.343,46,59.836,46c0.483,0,0.862-0.23,1.136-0.689
		C61.204,44.928,61.32,44.479,61.32,43.956z"/>
	<path fill="#FFFFFF" d="M66.738,42.242c-0.125-0.023-0.258-0.035-0.397-0.035c-0.444,0-0.788,0.167-1.03,0.504
		c-0.209,0.296-0.314,0.67-0.314,1.123v2.983h-1.264v-3.896c0-0.655-0.013-1.252-0.037-1.791h1.101l0.046,1.088h0.035
		c0.134-0.373,0.344-0.675,0.632-0.9c0.281-0.203,0.585-0.305,0.913-0.305c0.117,0,0.223,0.008,0.316,0.023V42.242L66.738,42.242z"
		/>
	<path fill="#FFFFFF" d="M72.389,43.705c0,0.227-0.014,0.417-0.045,0.572h-3.791c0.014,0.562,0.198,0.992,0.551,1.289
		c0.318,0.264,0.732,0.396,1.239,0.396c0.562,0,1.073-0.088,1.533-0.268l0.198,0.876c-0.538,0.234-1.174,0.352-1.906,0.352
		c-0.882,0-1.574-0.26-2.078-0.778c-0.502-0.518-0.754-1.215-0.754-2.088c0-0.856,0.234-1.57,0.703-2.141
		c0.49-0.607,1.153-0.912,1.988-0.912c0.818,0,1.439,0.305,1.861,0.912C72.222,42.398,72.389,42.996,72.389,43.705z M71.185,43.377
		c0.009-0.375-0.074-0.697-0.245-0.971c-0.219-0.353-0.556-0.527-1.006-0.527c-0.414,0-0.75,0.171-1.006,0.515
		c-0.211,0.272-0.336,0.602-0.374,0.982L71.185,43.377L71.185,43.377z"/>
</g>
<g>
	<g>
		<path fill="#FFFFFF" d="M26.792,36.143c-0.351,0-0.655-0.017-0.908-0.046v-3.813c0.328-0.051,0.684-0.081,1.07-0.081
			c1.449,0,2.116,0.713,2.116,1.875C29.069,35.418,28.281,36.143,26.792,36.143z M27.004,32.692c-0.196,0-0.362,0.012-0.5,0.04
			v2.898c0.074,0.012,0.218,0.017,0.419,0.017c0.949,0,1.49-0.541,1.49-1.553C28.413,33.193,27.924,32.692,27.004,32.692z"/>
		<path fill="#FFFFFF" d="M31.148,36.172c-0.816,0-1.346-0.61-1.346-1.438c0-0.863,0.541-1.478,1.392-1.478
			c0.805,0,1.346,0.581,1.346,1.432C32.541,35.562,31.983,36.172,31.148,36.172z M31.172,33.71c-0.449,0-0.736,0.42-0.736,1.006
			c0,0.576,0.293,0.995,0.73,0.995c0.437,0,0.73-0.449,0.73-1.007C31.896,34.136,31.609,33.71,31.172,33.71z"/>
		<path fill="#FFFFFF" d="M37.197,33.314l-0.875,2.794h-0.569l-0.362-1.213c-0.092-0.305-0.167-0.604-0.225-0.903h-0.012
			c-0.045,0.305-0.132,0.61-0.224,0.903l-0.385,1.213H33.97l-0.822-2.794h0.638l0.316,1.329c0.075,0.316,0.138,0.615,0.189,0.897
			h0.012c0.045-0.235,0.12-0.529,0.23-0.891l0.397-1.334h0.506l0.38,1.305c0.092,0.317,0.167,0.627,0.225,0.92h0.017
			c0.04-0.287,0.104-0.592,0.189-0.92l0.34-1.305L37.197,33.314L37.197,33.314z"/>
		<path fill="#FFFFFF" d="M40.415,36.108h-0.621v-1.604c0-0.495-0.19-0.742-0.563-0.742c-0.368,0-0.621,0.316-0.621,0.685v1.662
			h-0.621v-1.996c0-0.248-0.006-0.512-0.023-0.8h0.546l0.029,0.432h0.017c0.167-0.299,0.506-0.488,0.886-0.488
			c0.587,0,0.972,0.449,0.972,1.179L40.415,36.108L40.415,36.108z"/>
		<path fill="#FFFFFF" d="M42.127,36.108h-0.621v-4.077h0.621V36.108z"/>
		<path fill="#FFFFFF" d="M44.392,36.172c-0.815,0-1.346-0.61-1.346-1.438c0-0.863,0.54-1.478,1.392-1.478
			c0.805,0,1.346,0.581,1.346,1.432C45.783,35.562,45.226,36.172,44.392,36.172z M44.415,33.71c-0.448,0-0.736,0.42-0.736,1.006
			c0,0.576,0.294,0.995,0.729,0.995c0.438,0,0.73-0.449,0.73-1.007C45.139,34.136,44.852,33.71,44.415,33.71z"/>
		<path fill="#FFFFFF" d="M48.232,36.108l-0.046-0.322H48.17c-0.189,0.259-0.467,0.385-0.816,0.385
			c-0.502,0-0.857-0.351-0.857-0.823c0-0.689,0.599-1.046,1.634-1.046v-0.051c0-0.368-0.195-0.553-0.58-0.553
			c-0.276,0-0.518,0.069-0.73,0.208l-0.126-0.408c0.258-0.161,0.58-0.242,0.959-0.242c0.73,0,1.1,0.385,1.1,1.156v1.029
			c0,0.282,0.012,0.5,0.039,0.667L48.232,36.108L48.232,36.108z M48.146,34.716c-0.689,0-1.036,0.167-1.036,0.563
			c0,0.293,0.179,0.437,0.427,0.437c0.315,0,0.609-0.241,0.609-0.569V34.716z"/>
		<path fill="#FFFFFF" d="M51.768,36.108l-0.029-0.449h-0.018c-0.178,0.339-0.479,0.512-0.896,0.512
			c-0.674,0-1.174-0.593-1.174-1.426c0-0.874,0.518-1.49,1.225-1.49c0.373,0,0.639,0.126,0.787,0.38h0.014v-1.604h0.621v3.324
			c0,0.27,0.006,0.523,0.023,0.753H51.768z M51.676,34.464c0-0.391-0.26-0.725-0.654-0.725c-0.461,0-0.742,0.408-0.742,0.983
			c0,0.564,0.292,0.95,0.729,0.95c0.39,0,0.667-0.34,0.667-0.742V34.464z"/>
		<path fill="#FFFFFF" d="M56.238,36.172c-0.816,0-1.346-0.61-1.346-1.438c0-0.863,0.541-1.478,1.393-1.478
			c0.805,0,1.346,0.581,1.346,1.432C57.631,35.562,57.073,36.172,56.238,36.172z M56.262,33.71c-0.448,0-0.736,0.42-0.736,1.006
			c0,0.576,0.294,0.995,0.73,0.995c0.438,0,0.729-0.449,0.729-1.007C56.986,34.136,56.699,33.71,56.262,33.71z"/>
		<path fill="#FFFFFF" d="M60.971,36.108h-0.622v-1.604c0-0.495-0.19-0.742-0.563-0.742c-0.368,0-0.621,0.316-0.621,0.685v1.662
			h-0.621v-1.996c0-0.248-0.006-0.512-0.023-0.8h0.547l0.029,0.432h0.017c0.167-0.299,0.506-0.489,0.886-0.489
			c0.586,0,0.973,0.448,0.973,1.179V36.108z"/>
		<path fill="#FFFFFF" d="M65.148,33.779h-0.684v1.357c0,0.345,0.12,0.518,0.361,0.518c0.11,0,0.202-0.012,0.275-0.029l0.018,0.472
			c-0.12,0.046-0.281,0.069-0.481,0.069c-0.489,0-0.782-0.27-0.782-0.978v-1.409h-0.408v-0.465h0.408v-0.512l0.609-0.184v0.695
			h0.684V33.779z"/>
		<path fill="#FFFFFF" d="M68.436,36.108h-0.619v-1.593c0-0.5-0.189-0.753-0.564-0.753c-0.322,0-0.621,0.219-0.621,0.662v1.685
			H66.01v-4.077h0.621v1.679h0.012c0.195-0.304,0.479-0.454,0.841-0.454c0.591,0,0.952,0.459,0.952,1.19V36.108z"/>
		<path fill="#FFFFFF" d="M71.805,34.86h-1.863c0.012,0.529,0.361,0.828,0.88,0.828c0.275,0,0.529-0.046,0.753-0.132l0.097,0.431
			c-0.265,0.115-0.575,0.173-0.938,0.173c-0.874,0-1.392-0.552-1.392-1.409c0-0.857,0.53-1.501,1.322-1.501
			c0.714,0,1.162,0.529,1.162,1.329C71.828,34.688,71.822,34.786,71.805,34.86z M71.234,34.418c0-0.432-0.217-0.736-0.613-0.736
			c-0.357,0-0.64,0.311-0.68,0.736H71.234z"/>
	</g>
</g>
</svg>
