<?xml version="1.0" encoding="utf-8"?>
<svg version="1.1" id="google-play-store" xmlns="http://www.w3.org/2000/svg" x="0px"
	 y="0px" width="79.445px" height="27.204px" viewBox="182.806 7.833 79.445 27.204"
	 enable-background="new 182.806 7.833 79.445 27.204" xml:space="preserve">
<g>
	<path fill="#010101" stroke="#FFFFFF" stroke-width="1.1758" stroke-miterlimit="10" d="M262.251,31.124
		c0,2.414-1.773,3.914-4.185,3.914h-70.893c-2.412,0-4.368-1.957-4.368-4.371V12.204c0-2.414,1.956-4.37,4.368-4.37h70.893
		c2.411,0,4.185,1.956,4.185,4.37V31.124z"/>
	<path fill="#010101" stroke="#FFFFFF" stroke-width="1.1758" stroke-miterlimit="10" d="M262.251,31.124
		c0,2.414-1.773,3.914-4.185,3.914h-70.893c-2.412,0-4.368-1.957-4.368-4.371V12.204c0-2.414,1.956-4.37,4.368-4.37h70.893
		c2.411,0,4.185,1.956,4.185,4.37V31.124z"/>
	<g>
		<g>
			<path fill="#FFFFFF" d="M237.098,27.36l-0.598,0.562c-0.137,0.076-0.273,0.164-0.411,0.227c-0.413,0.188-0.835,0.235-1.208,0.235
				c-0.4,0-1.023-0.026-1.66-0.487c-0.887-0.623-1.273-1.694-1.273-2.629c0-1.934,1.576-2.881,2.859-2.881
				c0.448,0,0.909,0.112,1.283,0.349c0.624,0.411,0.785,0.948,0.875,1.234l-2.933,1.185l-0.96,0.074
				c0.311,1.586,1.384,2.508,2.568,2.508c0.592,0,1.031-0.193,1.436-0.393C237.075,27.344,237.156,27.303,237.098,27.36z
				 M235.329,24.208c0.238-0.088,0.362-0.162,0.362-0.336c0-0.498-0.563-1.072-1.236-1.072c-0.498,0-1.434,0.387-1.434,1.735
				c0,0.21,0.025,0.435,0.037,0.658L235.329,24.208z"/>
			<path fill="#FFFFFF" d="M230.968,27.263c0,0.485,0.087,0.56,0.497,0.599c0.213,0.025,0.426,0.036,0.638,0.062l-0.462,0.273
				h-2.197c0.289-0.373,0.338-0.41,0.338-0.659v-0.279l-0.005-7.415h-0.972l0.934-0.45h1.783c-0.385,0.224-0.502,0.36-0.551,0.796
				L230.968,27.263z"/>
			<path fill="#FFFFFF" d="M227.56,22.999c0.286,0.236,0.884,0.735,0.884,1.682c0,0.924-0.521,1.359-1.046,1.771
				c-0.161,0.163-0.349,0.34-0.349,0.611c0,0.275,0.188,0.425,0.324,0.537l0.451,0.348c0.546,0.462,1.047,0.887,1.047,1.747
				c0,1.173-1.136,2.355-3.281,2.355c-1.808,0-2.682-0.859-2.682-1.782c0-0.449,0.224-1.086,0.961-1.521
				c0.773-0.473,1.821-0.537,2.383-0.572c-0.176-0.227-0.375-0.464-0.375-0.85c0-0.213,0.063-0.339,0.125-0.487
				c-0.137,0.013-0.273,0.027-0.399,0.027c-1.323,0-2.071-0.988-2.071-1.959c0-0.574,0.262-1.21,0.799-1.671
				c0.711-0.586,1.559-0.688,2.231-0.688h2.57l-0.798,0.451H227.56L227.56,22.999z M226.676,28.536
				c-0.103-0.013-0.164-0.013-0.287-0.013c-0.112,0-0.786,0.025-1.309,0.2c-0.275,0.102-1.073,0.398-1.073,1.285
				c0,0.884,0.861,1.521,2.194,1.521c1.197,0,1.834-0.574,1.834-1.346C228.033,29.546,227.623,29.209,226.676,28.536z
				 M227.034,26.166c0.289-0.288,0.313-0.685,0.313-0.911c0-0.896-0.535-2.294-1.572-2.294c-0.322,0-0.674,0.162-0.873,0.413
				c-0.209,0.26-0.272,0.598-0.272,0.921c0,0.835,0.486,2.221,1.558,2.221C226.5,26.515,226.837,26.363,227.034,26.166z"/>
			<path fill="#FFFFFF" d="M219.827,28.36c-1.982,0-3.043-1.544-3.043-2.941c0-1.633,1.333-3.031,3.229-3.031
				c1.834,0,2.982,1.436,2.982,2.942C222.996,26.801,221.861,28.36,219.827,28.36z M221.387,27.35
				c0.302-0.398,0.375-0.896,0.375-1.383c0-1.098-0.523-3.193-2.07-3.193c-0.412,0-0.826,0.161-1.124,0.424
				c-0.488,0.436-0.574,0.984-0.574,1.522c0,1.231,0.608,3.265,2.121,3.265C220.602,27.985,221.1,27.749,221.387,27.35z"/>
			<path fill="#FFFFFF" d="M213.189,28.36c-1.983,0-3.041-1.544-3.041-2.941c0-1.633,1.334-3.031,3.229-3.031
				c1.834,0,2.98,1.436,2.98,2.942C216.357,26.801,215.225,28.36,213.189,28.36z M214.75,27.35c0.299-0.398,0.373-0.896,0.373-1.383
				c0-1.098-0.524-3.193-2.07-3.193c-0.412,0-0.822,0.161-1.121,0.424c-0.488,0.436-0.574,0.984-0.574,1.522
				c0,1.231,0.611,3.265,2.12,3.265C213.965,27.985,214.462,27.749,214.75,27.35z"/>
			<path fill="#FFFFFF" d="M209.355,27.926l-1.673,0.383c-0.677,0.107-1.285,0.201-1.929,0.201c-3.226,0-4.455-2.373-4.455-4.231
				c0-2.269,1.742-4.372,4.723-4.372c0.631,0,1.238,0.092,1.791,0.242c0.877,0.246,1.287,0.551,1.543,0.729l-0.973,0.923
				l-0.409,0.091l0.292-0.465c-0.395-0.387-1.122-1.1-2.502-1.1c-1.845,0-3.236,1.401-3.236,3.449c0,2.198,1.59,4.267,4.137,4.267
				c0.75,0,1.135-0.15,1.484-0.29v-1.885l-1.766,0.094l0.936-0.502h2.478l-0.304,0.292c-0.082,0.069-0.092,0.093-0.115,0.187
				c-0.012,0.107-0.023,0.444-0.023,0.564v1.424H209.355L209.355,27.926z"/>
		</g>
		<g>
			<path fill="#FFFFFF" d="M240.693,27.414v3.177h-0.631v-8.084h0.631v0.92c0.41-0.594,1.162-1.065,2.033-1.065
				c1.564,0,2.619,1.187,2.619,3.064c0,1.866-1.054,3.077-2.619,3.077C241.904,28.504,241.166,28.08,240.693,27.414z
				 M244.668,25.426c0-1.416-0.738-2.496-2.047-2.496c-0.812,0-1.59,0.639-1.928,1.195v2.588c0.338,0.559,1.115,1.221,1.928,1.221
				C243.93,27.934,244.668,26.844,244.668,25.426z"/>
			<path fill="#FFFFFF" d="M246.207,28.358v-8.082h0.632v8.082H246.207z"/>
			<path fill="#FFFFFF" d="M253.917,30.068c0.134,0.06,0.364,0.098,0.511,0.098c0.385,0,0.654-0.159,0.895-0.716l0.462-1.043
				l-2.485-5.9h0.703l2.133,5.113l2.111-5.113h0.714l-3.032,7.139c-0.314,0.736-0.809,1.09-1.488,1.09
				c-0.205,0-0.473-0.037-0.631-0.086L253.917,30.068z"/>
			<path fill="#FFFFFF" d="M252.074,28.34c-0.043-0.203-0.074-0.381-0.098-0.531c-0.019-0.148-0.029-0.302-0.029-0.456
				c-0.217,0.317-0.522,0.581-0.914,0.79c-0.391,0.209-0.764,0.312-1.274,0.312c-0.614,0-1.091-0.15-1.433-0.458
				c-0.339-0.307-0.51-0.722-0.51-1.247s0.248-0.951,0.74-1.275c0.494-0.328,1.131-0.49,1.92-0.49h1.471v-0.728
				c0-0.419-0.143-0.747-0.428-0.987c-0.285-0.238-0.688-0.359-1.208-0.359c-0.477,0-0.862,0.11-1.155,0.325
				c-0.291,0.22-0.438,0.491-0.438,0.819h-0.646l-0.012-0.031c-0.023-0.442,0.178-0.83,0.607-1.164
				c0.428-0.336,0.989-0.503,1.68-0.503c0.687,0,1.244,0.166,1.664,0.495c0.418,0.327,0.629,0.801,0.629,1.418v2.887
				c0,0.207,0.01,0.408,0.035,0.604c0.027,0.195,0.068,0.391,0.127,0.579L252.074,28.34L252.074,28.34z M249.835,27.881
				c0.536,0,0.921-0.119,1.315-0.357c0.391-0.234,0.657-0.541,0.796-0.913v-1.124h-1.479c-0.565,0-1.031,0.125-1.4,0.377
				c-0.368,0.252-0.556,0.557-0.556,0.91c0,0.334,0.119,0.6,0.354,0.802C249.102,27.78,249.424,27.881,249.835,27.881z"/>
		</g>
	</g>
	<g>
		<g>
			<path fill="#FFFFFF" d="M201.326,13.644c0-1.241,0.922-2.041,2.07-2.041c0.77,0,1.271,0.366,1.585,0.815l-0.562,0.326
				c-0.213-0.295-0.586-0.526-1.023-0.526c-0.781,0-1.361,0.592-1.361,1.425c0,0.823,0.58,1.426,1.361,1.426
				c0.402,0,0.757-0.183,0.935-0.354v-0.61h-1.183v-0.608h1.869v1.473c-0.385,0.432-0.941,0.723-1.621,0.723
				C202.248,15.692,201.326,14.881,201.326,13.644z"/>
			<path fill="#FFFFFF" d="M205.873,15.614v-3.945h2.704v0.609h-2.011v1.018h1.969v0.608h-1.969v1.101h2.011v0.609H205.873
				L205.873,15.614z"/>
			<path fill="#FFFFFF" d="M210.492,15.614v-3.336h-1.194v-0.609h3.081v0.609h-1.194v3.336H210.492z"/>
			<path fill="#FFFFFF" d="M214.785,15.614v-3.945h0.691v3.945H214.785z"/>
			<path fill="#FFFFFF" d="M217.404,15.614v-3.336h-1.195v-0.609h3.082v0.609h-1.195v3.336H217.404z"/>
			<path fill="#FFFFFF" d="M221.525,13.644c0-1.177,0.834-2.041,2.018-2.041c1.177,0,2.017,0.864,2.017,2.041
				s-0.84,2.041-2.017,2.041C222.359,15.685,221.525,14.821,221.525,13.644z M224.851,13.644c0-0.815-0.515-1.425-1.307-1.425
				c-0.799,0-1.308,0.609-1.308,1.425c0,0.812,0.509,1.426,1.308,1.426C224.336,15.07,224.851,14.456,224.851,13.644z"/>
			<path fill="#FFFFFF" d="M229.119,15.614l-2.059-2.821v2.821h-0.691v-3.945h0.709l2.017,2.732v-2.732h0.693v3.945H229.119z"/>
		</g>
	</g>
	<g>
		<polygon fill="none" points="193.061,25.097 195.086,23.074 195.085,23.074 193.061,25.097 186.602,18.637 186.602,18.637 
			193.061,25.098 186.592,31.567 186.592,31.567 193.061,25.098 195.094,27.131 195.096,27.131 		"/>
		
			<linearGradient id="SVGID_1_" gradientUnits="userSpaceOnUse" x1="1045.2168" y1="-1140.9312" x2="1027.1309" y2="-1152.25" gradientTransform="matrix(0.3334 0.3334 -0.3334 0.3334 -537.154 56.4881)">
			<stop  offset="0" style="stop-color:#D7E69D"/>
			<stop  offset="0.4456" style="stop-color:#94C4AA"/>
			<stop  offset="1" style="stop-color:#01A4B6"/>
		</linearGradient>
		<path fill="url(#SVGID_1_)" d="M195.085,23.074l-7.886-4.337c-0.224-0.121-0.431-0.15-0.598-0.099l6.46,6.459L195.085,23.074z"/>
		
			<linearGradient id="SVGID_2_" gradientUnits="userSpaceOnUse" x1="1034.7041" y1="-1150.6011" x2="1058.1548" y2="-1144.4707" gradientTransform="matrix(0.3334 0.3334 -0.3334 0.3334 -537.154 56.4881)">
			<stop  offset="0" style="stop-color:#ED277B"/>
			<stop  offset="0.0192" style="stop-color:#EE2F7C"/>
			<stop  offset="0.7039" style="stop-color:#F7BD81"/>
			<stop  offset="1" style="stop-color:#FEEB74"/>
		</linearGradient>
		<path fill="url(#SVGID_2_)" d="M195.096,27.131l2.691-1.481c0.546-0.302,0.546-0.792,0-1.091l-2.701-1.485l-2.024,2.023
			L195.096,27.131z"/>
		
			<linearGradient id="SVGID_3_" gradientUnits="userSpaceOnUse" x1="1047.793" y1="-1132.3447" x2="1022.3602" y2="-1147.3079" gradientTransform="matrix(0.3334 0.3334 -0.3334 0.3334 -537.154 56.4881)">
			<stop  offset="0" style="stop-color:#89CFBD"/>
			<stop  offset="0.0907" style="stop-color:#7DBEBB"/>
			<stop  offset="0.5396" style="stop-color:#457CAC"/>
			<stop  offset="0.8523" style="stop-color:#1C5AA2"/>
			<stop  offset="1" style="stop-color:#084D9F"/>
		</linearGradient>
		<path fill="url(#SVGID_3_)" d="M186.602,18.637c-0.239,0.076-0.395,0.318-0.395,0.686l0.001,11.562
			c0,0.363,0.151,0.602,0.384,0.682l6.47-6.471L186.602,18.637z"/>
		
			<linearGradient id="SVGID_4_" gradientUnits="userSpaceOnUse" x1="1057.0273" y1="-1144.2266" x2="1041.3689" y2="-1123.5973" gradientTransform="matrix(0.3334 0.3334 -0.3334 0.3334 -537.154 56.4881)">
			<stop  offset="0" style="stop-color:#F04A2B"/>
			<stop  offset="0.4704" style="stop-color:#B54F6B"/>
			<stop  offset="0.8353" style="stop-color:#8B5191"/>
			<stop  offset="1" style="stop-color:#7851A1"/>
		</linearGradient>
		<path fill="url(#SVGID_4_)" d="M186.592,31.567c0.168,0.058,0.379,0.03,0.607-0.094l7.896-4.342l-2.033-2.033L186.592,31.567z"/>
	</g>
</g>
</svg>
